<mxfile host="app.diagrams.net" modified="2023-06-21T00:17:11.539Z" agent="Mozilla/5.0 (Macintosh; Intel Mac OS X 10_15_7) AppleWebKit/537.36 (KHTML, like Gecko) Chrome/114.0.0.0 Safari/537.36" version="21.5.0" etag="CKSM21sHO9NG_XPSS2AR" type="github">
  <diagram name="Page-1" id="dehKwdMDdCNMkUNMSvIG">
    <mxGraphModel>
      <root>
        <mxCell id="0" />
        <mxCell id="1" parent="0" />
      </root>
    </mxGraphModel>
  </diagram>
</mxfile>
